<svg xmlns="http://www.w3.org/2000/svg" xmlns:xlink="http://www.w3.org/1999/xlink" width="500" zoomAndPan="magnify" viewBox="0 0 375 374.999991" height="500" preserveAspectRatio="xMidYMid meet" version="1.0"><defs><g/></defs><g fill="#ff00ff" fill-opacity="1"><g transform="translate(36.926899, 225.137889)"><g><path d="M 27.328125 1.875 C 20.941406 1.875 15.160156 0.84375 9.984375 -1.21875 C 4.804688 -3.289062 0.546875 -6.3125 -2.796875 -10.28125 L 12.03125 -27.796875 C 14.207031 -25.066406 16.347656 -23.039062 18.453125 -21.71875 C 20.554688 -20.394531 22.738281 -19.734375 25 -19.734375 C 27.875 -19.734375 30.070312 -20.585938 31.59375 -22.296875 C 33.113281 -24.015625 33.875 -26.550781 33.875 -29.90625 L 33.875 -60.96875 L 6.078125 -60.96875 L 6.078125 -81.765625 L 61.078125 -81.765625 L 61.078125 -31.53125 C 61.078125 -20.394531 58.21875 -12.039062 52.5 -6.46875 C 46.78125 -0.90625 38.390625 1.875 27.328125 1.875 Z M 27.328125 1.875 "/></g></g></g><g fill="#ff00ff" fill-opacity="1"><g transform="translate(103.964309, 225.137889)"><g><path d="M 49.515625 1.875 C 40.722656 1.875 32.820312 0.046875 25.8125 -3.609375 C 18.800781 -7.273438 13.3125 -12.359375 9.34375 -18.859375 C 5.375 -25.359375 3.390625 -32.695312 3.390625 -40.875 C 3.390625 -49.050781 5.375 -56.390625 9.34375 -62.890625 C 13.3125 -69.390625 18.800781 -74.46875 25.8125 -78.125 C 32.820312 -81.789062 40.722656 -83.625 49.515625 -83.625 C 58.316406 -83.625 66.222656 -81.789062 73.234375 -78.125 C 80.242188 -74.46875 85.734375 -69.390625 89.703125 -62.890625 C 93.671875 -56.390625 95.65625 -49.050781 95.65625 -40.875 C 95.65625 -32.695312 93.671875 -25.359375 89.703125 -18.859375 C 85.734375 -12.359375 80.242188 -7.273438 73.234375 -3.609375 C 66.222656 0.046875 58.316406 1.875 49.515625 1.875 Z M 49.515625 -20.4375 C 52.941406 -20.4375 56.035156 -21.273438 58.796875 -22.953125 C 61.566406 -24.628906 63.769531 -27.003906 65.40625 -30.078125 C 67.039062 -33.148438 67.859375 -36.75 67.859375 -40.875 C 67.859375 -45 67.039062 -48.597656 65.40625 -51.671875 C 63.769531 -54.753906 61.566406 -57.128906 58.796875 -58.796875 C 56.035156 -60.472656 52.941406 -61.3125 49.515625 -61.3125 C 46.097656 -61.3125 43.003906 -60.472656 40.234375 -58.796875 C 37.472656 -57.128906 35.273438 -54.753906 33.640625 -51.671875 C 32.003906 -48.597656 31.1875 -45 31.1875 -40.875 C 31.1875 -36.75 32.003906 -33.148438 33.640625 -30.078125 C 35.273438 -27.003906 37.472656 -24.628906 40.234375 -22.953125 C 43.003906 -21.273438 46.097656 -20.4375 49.515625 -20.4375 Z M 49.515625 -20.4375 "/></g></g></g><g fill="#ff00ff" fill-opacity="1"><g transform="translate(203.002156, 225.137889)"><g><path d="M 6.65625 -81.765625 L 34.21875 -81.765625 L 34.21875 -21.375 L 71.125 -21.375 L 71.125 0 L 6.65625 0 Z M 6.65625 -81.765625 "/></g></g></g><g fill="#ff00ff" fill-opacity="1"><g transform="translate(275.061527, 225.137889)"><g><path d="M 24.40625 -60.390625 L 0.46875 -60.390625 L 0.46875 -81.765625 L 75.921875 -81.765625 L 75.921875 -60.390625 L 51.96875 -60.390625 L 51.96875 0 L 24.40625 0 Z M 24.40625 -60.390625 "/></g></g></g><g fill="#00ffff" fill-opacity="1"><g transform="translate(23.486259, 230.843104)"><g><path d="M 27.328125 1.875 C 20.941406 1.875 15.160156 0.84375 9.984375 -1.21875 C 4.804688 -3.289062 0.546875 -6.3125 -2.796875 -10.28125 L 12.03125 -27.796875 C 14.207031 -25.066406 16.347656 -23.039062 18.453125 -21.71875 C 20.554688 -20.394531 22.738281 -19.734375 25 -19.734375 C 27.875 -19.734375 30.070312 -20.585938 31.59375 -22.296875 C 33.113281 -24.015625 33.875 -26.550781 33.875 -29.90625 L 33.875 -60.96875 L 6.078125 -60.96875 L 6.078125 -81.765625 L 61.078125 -81.765625 L 61.078125 -31.53125 C 61.078125 -20.394531 58.21875 -12.039062 52.5 -6.46875 C 46.78125 -0.90625 38.390625 1.875 27.328125 1.875 Z M 27.328125 1.875 "/></g></g></g><g fill="#00ffff" fill-opacity="1"><g transform="translate(90.523669, 230.843104)"><g><path d="M 49.515625 1.875 C 40.722656 1.875 32.820312 0.046875 25.8125 -3.609375 C 18.800781 -7.273438 13.3125 -12.359375 9.34375 -18.859375 C 5.375 -25.359375 3.390625 -32.695312 3.390625 -40.875 C 3.390625 -49.050781 5.375 -56.390625 9.34375 -62.890625 C 13.3125 -69.390625 18.800781 -74.46875 25.8125 -78.125 C 32.820312 -81.789062 40.722656 -83.625 49.515625 -83.625 C 58.316406 -83.625 66.222656 -81.789062 73.234375 -78.125 C 80.242188 -74.46875 85.734375 -69.390625 89.703125 -62.890625 C 93.671875 -56.390625 95.65625 -49.050781 95.65625 -40.875 C 95.65625 -32.695312 93.671875 -25.359375 89.703125 -18.859375 C 85.734375 -12.359375 80.242188 -7.273438 73.234375 -3.609375 C 66.222656 0.046875 58.316406 1.875 49.515625 1.875 Z M 49.515625 -20.4375 C 52.941406 -20.4375 56.035156 -21.273438 58.796875 -22.953125 C 61.566406 -24.628906 63.769531 -27.003906 65.40625 -30.078125 C 67.039062 -33.148438 67.859375 -36.75 67.859375 -40.875 C 67.859375 -45 67.039062 -48.597656 65.40625 -51.671875 C 63.769531 -54.753906 61.566406 -57.128906 58.796875 -58.796875 C 56.035156 -60.472656 52.941406 -61.3125 49.515625 -61.3125 C 46.097656 -61.3125 43.003906 -60.472656 40.234375 -58.796875 C 37.472656 -57.128906 35.273438 -54.753906 33.640625 -51.671875 C 32.003906 -48.597656 31.1875 -45 31.1875 -40.875 C 31.1875 -36.75 32.003906 -33.148438 33.640625 -30.078125 C 35.273438 -27.003906 37.472656 -24.628906 40.234375 -22.953125 C 43.003906 -21.273438 46.097656 -20.4375 49.515625 -20.4375 Z M 49.515625 -20.4375 "/></g></g></g><g fill="#00ffff" fill-opacity="1"><g transform="translate(189.561516, 230.843104)"><g><path d="M 6.65625 -81.765625 L 34.21875 -81.765625 L 34.21875 -21.375 L 71.125 -21.375 L 71.125 0 L 6.65625 0 Z M 6.65625 -81.765625 "/></g></g></g><g fill="#00ffff" fill-opacity="1"><g transform="translate(261.620887, 230.843104)"><g><path d="M 24.40625 -60.390625 L 0.46875 -60.390625 L 0.46875 -81.765625 L 75.921875 -81.765625 L 75.921875 -60.390625 L 51.96875 -60.390625 L 51.96875 0 L 24.40625 0 Z M 24.40625 -60.390625 "/></g></g></g><g fill="#dddddd" fill-opacity="1"><g transform="translate(30.206579, 227.990497)"><g><path d="M 27.328125 1.875 C 20.941406 1.875 15.160156 0.84375 9.984375 -1.21875 C 4.804688 -3.289062 0.546875 -6.3125 -2.796875 -10.28125 L 12.03125 -27.796875 C 14.207031 -25.066406 16.347656 -23.039062 18.453125 -21.71875 C 20.554688 -20.394531 22.738281 -19.734375 25 -19.734375 C 27.875 -19.734375 30.070312 -20.585938 31.59375 -22.296875 C 33.113281 -24.015625 33.875 -26.550781 33.875 -29.90625 L 33.875 -60.96875 L 6.078125 -60.96875 L 6.078125 -81.765625 L 61.078125 -81.765625 L 61.078125 -31.53125 C 61.078125 -20.394531 58.21875 -12.039062 52.5 -6.46875 C 46.78125 -0.90625 38.390625 1.875 27.328125 1.875 Z M 27.328125 1.875 "/></g></g></g><g fill="#dddddd" fill-opacity="1"><g transform="translate(97.243989, 227.990497)"><g><path d="M 49.515625 1.875 C 40.722656 1.875 32.820312 0.046875 25.8125 -3.609375 C 18.800781 -7.273438 13.3125 -12.359375 9.34375 -18.859375 C 5.375 -25.359375 3.390625 -32.695312 3.390625 -40.875 C 3.390625 -49.050781 5.375 -56.390625 9.34375 -62.890625 C 13.3125 -69.390625 18.800781 -74.46875 25.8125 -78.125 C 32.820312 -81.789062 40.722656 -83.625 49.515625 -83.625 C 58.316406 -83.625 66.222656 -81.789062 73.234375 -78.125 C 80.242188 -74.46875 85.734375 -69.390625 89.703125 -62.890625 C 93.671875 -56.390625 95.65625 -49.050781 95.65625 -40.875 C 95.65625 -32.695312 93.671875 -25.359375 89.703125 -18.859375 C 85.734375 -12.359375 80.242188 -7.273438 73.234375 -3.609375 C 66.222656 0.046875 58.316406 1.875 49.515625 1.875 Z M 49.515625 -20.4375 C 52.941406 -20.4375 56.035156 -21.273438 58.796875 -22.953125 C 61.566406 -24.628906 63.769531 -27.003906 65.40625 -30.078125 C 67.039062 -33.148438 67.859375 -36.75 67.859375 -40.875 C 67.859375 -45 67.039062 -48.597656 65.40625 -51.671875 C 63.769531 -54.753906 61.566406 -57.128906 58.796875 -58.796875 C 56.035156 -60.472656 52.941406 -61.3125 49.515625 -61.3125 C 46.097656 -61.3125 43.003906 -60.472656 40.234375 -58.796875 C 37.472656 -57.128906 35.273438 -54.753906 33.640625 -51.671875 C 32.003906 -48.597656 31.1875 -45 31.1875 -40.875 C 31.1875 -36.75 32.003906 -33.148438 33.640625 -30.078125 C 35.273438 -27.003906 37.472656 -24.628906 40.234375 -22.953125 C 43.003906 -21.273438 46.097656 -20.4375 49.515625 -20.4375 Z M 49.515625 -20.4375 "/></g></g></g><g fill="#dddddd" fill-opacity="1"><g transform="translate(196.281836, 227.990497)"><g><path d="M 6.65625 -81.765625 L 34.21875 -81.765625 L 34.21875 -21.375 L 71.125 -21.375 L 71.125 0 L 6.65625 0 Z M 6.65625 -81.765625 "/></g></g></g><g fill="#dddddd" fill-opacity="1"><g transform="translate(268.341207, 227.990497)"><g><path d="M 24.40625 -60.390625 L 0.46875 -60.390625 L 0.46875 -81.765625 L 75.921875 -81.765625 L 75.921875 -60.390625 L 51.96875 -60.390625 L 51.96875 0 L 24.40625 0 Z M 24.40625 -60.390625 "/></g></g></g></svg>